<svg xmlns="http://www.w3.org/2000/svg" xmlns:xlink="http://www.w3.org/1999/xlink" version="1.1" x="0px" y="0px" viewBox="0 0 24 30" enable-background="new 0 0 24 24" xml:space="preserve"><path d="M12,2C8.1,2,5,5.1,5,9c0,3.9,7,13,7,13s7-9.1,7-13C19,5.1,15.9,2,12,2z M15.7,9.1C15.1,10.3,14,11.8,12,13  c-2-1.2-3.1-2.7-3.7-3.9C7.8,8,8,6.7,8.7,5.8c0.9-1.1,2.4-1.1,3.3,0c0.9-1,2.4-1,3.3,0C16,6.7,16.2,8,15.7,9.1z"/><text x="0" y="39" fill="#000000" font-size="5px" font-weight="bold" font-family="'Helvetica Neue', Helvetica, Arial-Unicode, Arial, Sans-serif">Created by Creative Stall</text><text x="0" y="44" fill="#000000" font-size="5px" font-weight="bold" font-family="'Helvetica Neue', Helvetica, Arial-Unicode, Arial, Sans-serif">from the Noun Project</text></svg>